
<svg xmlns="http://www.w3.org/2000/svg" viewBox="0 0 64 64">
  <defs>
    <linearGradient id="g" x1="0" y1="0" x2="1" y2="1">
      <stop offset="0" stop-color="#3B82F6"/>
      <stop offset="1" stop-color="#60A5FA"/>
    </linearGradient>
  </defs>
  <rect x="6" y="6" width="52" height="52" rx="12" fill="url(#g)"/>
  <g fill="#0B1220" opacity=".96" transform="translate(10,10) scale(0.9)">
    <path d="M8 18c0-4 4-8 10-8h4c5 0 9 3 9 7 0 3-2 5-6 6l-8 2c-3 1-5 3-5 4 0 3 2 4 6 4h5c3 0 4-1 6-3l4 3c-3 3-6 5-11 5h-4c-7 0-12-3-12-9 0-6 4-9 10-10l8-2c2-1 3-2 3-3 0-2-2-3-4-3h-4c-2 0-4 1-5 2z"/>
    <path d="M26 10l5 14 4-8 4 8 5-14h5l-7 18h-5l-3-6-3 6h-5l-7-18z" />
  </g>
</svg>
